<?xml version="1.0" encoding="UTF-8"?>
<svg id="Calque_2" data-name="Calque 2" xmlns="http://www.w3.org/2000/svg" viewBox="0 0 169.56 23.9">
  <defs>
    <style>
      .cls-1, .cls-2 {
        stroke: #f9b233;
        stroke-miterlimit: 10;
        stroke-width: 2px;
      }

      .cls-1, .cls-3 {
        fill: #f9b233;
      }

      .cls-2 {
        fill: none;
      }

      .cls-3 {
        stroke-width: 0px;
      }
    </style>
  </defs>
  <g id="Calque_1-2" data-name="Calque 1">
    <g>
      <path class="cls-3" d="m8.38,7.43L11.84.42c.28-.57,1.08-.56,1.36,0l3.46,7,7.73,1.12c.62.09.87.86.42,1.3l-5.59,5.45,1.32,7.7c.11.62-.55,1.09-1.1.8l-6.91-3.64-6.91,3.63c-.56.29-1.21-.18-1.1-.8l1.32-7.7L.23,9.85c-.45-.44-.2-1.21.42-1.3l7.73-1.12Z"/>
      <path class="cls-3" d="m44.25,7.43l3.46-7c.28-.57,1.08-.56,1.36,0l3.46,7,7.73,1.12c.62.09.87.86.42,1.3l-5.59,5.45,1.32,7.7c.11.62-.55,1.09-1.1.8l-6.91-3.64-6.91,3.63c-.56.29-1.21-.18-1.1-.8l1.32-7.7-5.59-5.45c-.45-.44-.2-1.21.42-1.3l7.73-1.12Z"/>
      <path class="cls-3" d="m81.12,7.43l3.46-7c.28-.57,1.08-.56,1.36,0l3.46,7,7.73,1.12c.62.09.87.86.42,1.3l-5.59,5.45,1.32,7.7c.11.62-.55,1.09-1.1.8l-6.91-3.64-6.91,3.63c-.56.29-1.21-.18-1.1-.8l1.32-7.7-5.59-5.45c-.45-.44-.2-1.21.42-1.3l7.73-1.12Z"/>
      <path class="cls-3" d="m116.99,7.43l3.46-7c.28-.57,1.08-.56,1.36,0l3.46,7,7.73,1.12c.62.09.87.86.42,1.3l-5.59,5.45,1.32,7.7c.11.62-.55,1.09-1.1.8l-6.91-3.64-6.91,3.63c-.56.29-1.21-.18-1.1-.8l1.32-7.7-5.59-5.45c-.45-.44-.2-1.21.42-1.3l7.73-1.12Z"/>
      <path class="cls-1" d="m154.56,5.23v15.58l-3.82,2.01c-.51.27-1.11-.17-1.01-.74l1.21-7.05-5.13-5c-.41-.4-.18-1.11.39-1.19l7.09-1.03,1.27-2.58Z"/>
      <path class="cls-2" d="m168.34,10.03l-5.12,5,1.2,7.05c.1.57-.5,1.01-1.01.74l-6.33-3.33-2.52,1.32V5.23l1.89-3.84c.26-.52,1-.52,1.25,0l3.17,6.42,7.09,1.03c.57.09.8.79.38,1.19Z"/>
    </g>
  </g>
</svg>