<?xml version="1.0" encoding="UTF-8"?>
<svg id="Calque_2" data-name="Calque 2" xmlns="http://www.w3.org/2000/svg" viewBox="0 0 170.07 23.98">
  <defs>
    <style>
      .cls-1, .cls-2 {
        stroke: #f9b233;
        stroke-miterlimit: 10;
        stroke-width: 2px;
      }

      .cls-1, .cls-3 {
        fill: #f9b233;
      }

      .cls-2 {
        fill: none;
      }

      .cls-3 {
        stroke-width: 0px;
      }
    </style>
  </defs>
  <g id="Calque_1-2" data-name="Calque 1">
    <g>
      <path class="cls-3" d="m8.38,7.5L11.84.5c.28-.57,1.08-.56,1.36,0l3.46,7,7.73,1.12c.62.09.87.86.42,1.3l-5.59,5.45,1.32,7.7c.11.62-.55,1.09-1.1.8l-6.91-3.64-6.91,3.63c-.56.29-1.21-.18-1.1-.8l1.32-7.7L.23,9.92c-.45-.44-.2-1.21.42-1.3l7.73-1.12Z"/>
      <path class="cls-3" d="m44.62,7.5l3.46-7c.28-.57,1.08-.56,1.36,0l3.46,7,7.73,1.12c.62.09.87.86.42,1.3l-5.59,5.45,1.32,7.7c.11.62-.55,1.09-1.1.8l-6.91-3.64-6.91,3.63c-.56.29-1.21-.18-1.1-.8l1.32-7.7-5.59-5.45c-.45-.44-.2-1.21.42-1.3l7.73-1.12Z"/>
      <path class="cls-3" d="m80.85,7.5l3.46-7c.28-.57,1.08-.56,1.36,0l3.46,7,7.73,1.12c.62.09.87.86.42,1.3l-5.59,5.45,1.32,7.7c.11.62-.55,1.09-1.1.8l-6.91-3.64-6.91,3.63c-.56.29-1.21-.18-1.1-.8l1.32-7.7-5.59-5.45c-.45-.44-.2-1.21.42-1.3l7.73-1.12Z"/>
      <path class="cls-3" d="m117.08,7.5l3.46-7c.28-.57,1.08-.56,1.36,0l3.46,7,7.73,1.12c.62.09.87.86.42,1.3l-5.59,5.45,1.32,7.7c.11.62-.55,1.09-1.1.8l-6.91-3.64-6.91,3.63c-.56.29-1.21-.18-1.1-.8l1.32-7.7-5.59-5.45c-.45-.44-.2-1.21.42-1.3l7.73-1.12Z"/>
      <path class="cls-1" d="m161.35,7.83v13.73l-3.81-2.01-6.36,3.35c-.51.27-1.11-.17-1.02-.74l1.22-7.08-5.15-5.02c-.41-.41-.18-1.11.39-1.19l7.11-1.04,3.19-6.44c.25-.52,1-.52,1.25,0l3.18,6.44Z"/>
      <path class="cls-2" d="m168.85,10.06l-5.15,5.02,1.22,7.08c.1.57-.5,1.01-1.02.74l-2.55-1.34V7.83l7.11,1.04c.58.08.81.79.39,1.19Z"/>
    </g>
  </g>
</svg>