<?xml version="1.0" encoding="UTF-8"?>
<svg id="Calque_2" data-name="Calque 2" xmlns="http://www.w3.org/2000/svg" viewBox="0 0 170.44 24.92">
  <defs>
    <style>
      .cls-1, .cls-2 {
        stroke: #f9b233;
        stroke-miterlimit: 10;
        stroke-width: 2px;
      }

      .cls-1, .cls-3 {
        fill: #f9b233;
      }

      .cls-2 {
        fill: none;
      }

      .cls-3 {
        stroke-width: 0px;
      }
    </style>
  </defs>
  <g id="Calque_1-2" data-name="Calque 1">
    <g>
      <path class="cls-3" d="m8.38,7.9L11.84.89c.28-.57,1.08-.56,1.36,0l3.46,7,7.73,1.12c.62.09.87.86.42,1.3l-5.59,5.45,1.32,7.7c.11.62-.55,1.09-1.1.8l-6.91-3.64-6.91,3.63c-.56.29-1.21-.18-1.1-.8l1.32-7.7L.23,10.31c-.45-.44-.2-1.21.42-1.3l7.73-1.12Z"/>
      <path class="cls-3" d="m44.62,7.9l3.46-7c.28-.57,1.08-.56,1.36,0l3.46,7,7.73,1.12c.62.09.87.86.42,1.3l-5.59,5.45,1.32,7.7c.11.62-.55,1.09-1.1.8l-6.91-3.64-6.91,3.63c-.56.29-1.21-.18-1.1-.8l1.32-7.7-5.59-5.45c-.45-.44-.2-1.21.42-1.3l7.73-1.12Z"/>
      <path class="cls-3" d="m80.85,7.9l3.46-7c.28-.57,1.08-.56,1.36,0l3.46,7,7.73,1.12c.62.09.87.86.42,1.3l-5.59,5.45,1.32,7.7c.11.62-.55,1.09-1.1.8l-6.91-3.64-6.91,3.63c-.56.29-1.21-.18-1.1-.8l1.32-7.7-5.59-5.45c-.45-.44-.2-1.21.42-1.3l7.73-1.12Z"/>
      <path class="cls-3" d="m117.08,7.9l3.46-7c.28-.57,1.08-.56,1.36,0l3.46,7,7.73,1.12c.62.09.87.86.42,1.3l-5.59,5.45,1.32,7.7c.11.62-.55,1.09-1.1.8l-6.91-3.64-6.91,3.63c-.56.29-1.21-.18-1.1-.8l1.32-7.7-5.59-5.45c-.45-.44-.2-1.21.42-1.3l7.73-1.12Z"/>
      <path class="cls-1" d="m163.21,8.35v14.91l-5.73-3.01-6.6,3.46c-.53.28-1.15-.17-1.05-.76l1.26-7.35-5.34-5.21c-.43-.42-.19-1.15.4-1.23l7.38-1.07,3.3-6.69c.27-.54,1.04-.54,1.3,0l3.3,6.69,1.78.26Z"/>
      <path class="cls-2" d="m169.21,10.41l-5.34,5.2,1.26,7.35c.11.59-.52,1.05-1.05.77l-.87-.46v-14.91l5.6.81c.6.09.84.82.4,1.24Z"/>
    </g>
  </g>
</svg>