<?xml version="1.0" encoding="UTF-8"?>
<svg id="Calque_2" data-name="Calque 2" xmlns="http://www.w3.org/2000/svg" viewBox="0 0 106.97 56.95">
  <defs>
    <style>
      .cls-1, .cls-2 {
        fill: #1d1d1b;
      }

      .cls-2 {
        stroke-width: 0px;
      }
    </style>
  </defs>
  <g id="Calque_1-2">
    <g>
      <path class="cls-1" d="m1.62,13.29h0c.89,0,1.62.72,1.62,1.62v4.62h8.25v-4.76c0-.82.66-1.48,1.48-1.48h0c.82,0,1.48.66,1.48,1.48v5.85s5.92,0,5.92,0v-8.04c0-.74.6-1.34,1.34-1.34h0c.74,0,1.34.6,1.34,1.34v19.91c0,.74-.6,1.34-1.34,1.34h0c-.74,0-1.34-.6-1.34-1.34v-8.86s-5.92,0-5.92,0v5.37c0,.88-.72,1.6-1.6,1.6H1.6c-.88,0-1.6-.72-1.6-1.6v-14.1c0-.89.72-1.62,1.62-1.62Zm9.86,14.81v-6.06H3.23v6.06h8.25Zm-2.57,6.79h0c.77,0,1.39.62,1.39,1.39v6.9s19.25,0,19.25,0c.82,0,1.48.66,1.48,1.48h0c0,.82-.66,1.48-1.48,1.48H8.91c-.77,0-1.39-.62-1.39-1.39v-8.47c0-.77.62-1.39,1.39-1.39ZM29.39,11.24h0c.75,0,1.37.61,1.37,1.37v19.86c0,.75-.61,1.37-1.37,1.37h0c-.75,0-1.37-.61-1.37-1.37V12.61c0-.75.61-1.37,1.37-1.37Z"/>
      <path class="cls-1" d="m39.71,16.25h16.77c.69,0,1.25.56,1.25,1.25h0c0,.69-.56,1.25-1.25,1.25h-6.99v4.42c0,3.24.84,11.01,6.55,14.17.45.25.73.72.73,1.23v.04c0,1.01-1.04,1.7-1.97,1.29-.17-.07-.33-.15-.49-.23-1.96-1-5.65-5.01-6.47-9.43-.91,5.01-4.42,8.38-6.47,9.43-.12.07-.25.13-.39.19-.93.43-1.98-.26-1.98-1.28h0c0-.52.29-.98.74-1.23,5.57-3.07,6.32-10.76,6.32-14.17v-4.42h-6.36c-.69,0-1.25-.56-1.25-1.25h0c0-.69.56-1.25,1.25-1.25Zm20.27,7.38h5.35v-10.73c0-.92.74-1.66,1.66-1.66h0c.92,0,1.66.74,1.66,1.66v32.48c0,.92-.74,1.66-1.66,1.66h0c-.92,0-1.66-.74-1.66-1.66v-18.2h-5.35c-.92,0-1.66-.74-1.66-1.66v-.23c0-.92.74-1.66,1.66-1.66Z"/>
      <path class="cls-1" d="m77.96,13.33h14.11c.66,0,1.19.53,1.19,1.19v14.11c0,.66-.53,1.19-1.19,1.19h-14.11c-.66,0-1.19-.53-1.19-1.19v-14.11c0-.66.53-1.19,1.19-1.19Zm12.39,13.76v-10.98h-10.66v10.98h10.66Zm-7.45,8.47h0c.84,0,1.53.68,1.53,1.53v6.54h18.93c.79,0,1.44.64,1.44,1.44h0c0,.79-.64,1.44-1.44,1.44h-20.55c-.79,0-1.44-.64-1.44-1.44v-7.97c0-.84.68-1.53,1.53-1.53Zm19.89-24.19h0c.88,0,1.59.71,1.59,1.59v19.5c0,.88-.71,1.59-1.59,1.59h0c-.88,0-1.59-.71-1.59-1.59V12.97c0-.88.71-1.59,1.59-1.59Z"/>
      <g>
        <path class="cls-2" d="m12.74.18s.06.08.06.13l-.02.1-2.17,6.26s-.04.07-.07.09c-.03.02-.07.03-.1.03-.1,0-.16-.04-.19-.11l-1.74-4.39-1.74,4.39c-.03.08-.1.11-.2.11-.04,0-.07-.01-.1-.03-.03-.02-.05-.05-.06-.09L4.23.41l-.02-.09c0-.06.02-.1.07-.14.04-.03.09-.05.14-.05.04,0,.07.01.11.03.03.02.06.05.07.09l2.01,5.81,1.71-4.32c.03-.08.09-.12.18-.12.04,0,.07.01.11.03s.06.05.07.09l1.72,4.33L12.4.26c.03-.08.1-.12.19-.12.06,0,.1.02.14.05Z"/>
        <path class="cls-2" d="m17.98,6.48s.06.08.06.13c0,.06-.02.1-.06.14-.04.03-.08.05-.13.05h-3.58c-.05,0-.1-.02-.13-.06-.04-.04-.06-.08-.06-.13V.35c0-.05.02-.1.06-.13s.08-.06.13-.06h3.58c.05,0,.1.02.13.06s.06.08.06.13c0,.06-.02.1-.06.14-.04.04-.08.05-.13.05h-3.37v2.65h2.94c.05,0,.1.02.13.06.04.04.06.08.06.13,0,.06-.02.1-.06.14-.04.04-.08.05-.13.05h-2.94v2.86h3.37c.05,0,.1.02.13.06Z"/>
        <path class="cls-2" d="m23.84,3.88c.24.29.37.67.37,1.13,0,.58-.18,1.02-.55,1.33-.36.31-.83.47-1.39.47h-2.62c-.05,0-.1-.02-.13-.06-.04-.04-.06-.08-.06-.13V.35c0-.05.02-.1.06-.13s.08-.06.13-.06h2.55c.51,0,.91.15,1.21.44s.46.68.46,1.18c0,.35-.09.68-.27.96-.18.29-.42.49-.74.59.41.08.73.26.97.55Zm-.71-3.01c-.23-.22-.56-.33-.97-.33h-2.3v2.67h2.3c.39,0,.71-.13.95-.38.24-.25.37-.6.37-1.06,0-.37-.12-.67-.35-.89Zm.24,5.2c.29-.24.44-.59.44-1.06s-.15-.82-.44-1.06c-.29-.24-.67-.36-1.15-.36h-2.36v2.83h2.36c.47,0,.86-.12,1.15-.36Z"/>
      </g>
      <g>
        <path class="cls-2" d="m52.1.61c.41.3.72.71.92,1.21.2.5.3,1.06.3,1.66s-.1,1.19-.3,1.69c-.2.5-.51.9-.92,1.19-.41.29-.92.44-1.54.44h-2.47c-.05,0-.1-.02-.13-.06-.04-.04-.06-.08-.06-.13V.35c0-.05.02-.1.06-.13s.08-.06.13-.06h2.47c.61,0,1.12.15,1.53.46Zm.21,5c.4-.54.61-1.25.61-2.13,0-.54-.09-1.03-.26-1.48-.17-.45-.44-.8-.81-1.07-.36-.27-.82-.4-1.38-.4h-2.16v5.88h2.16c.82,0,1.44-.27,1.84-.81Z"/>
        <path class="cls-2" d="m58.64,6.48s.06.08.06.13c0,.06-.02.1-.06.14s-.08.05-.13.05h-3.58c-.05,0-.09-.02-.13-.06-.04-.04-.06-.08-.06-.13V.35c0-.05.02-.1.06-.13.04-.04.08-.06.13-.06h3.58s.09.02.13.06c.04.04.06.08.06.13,0,.06-.02.1-.06.14-.04.04-.08.05-.13.05h-3.37v2.65h2.94c.05,0,.09.02.13.06.04.04.06.08.06.13,0,.06-.02.1-.06.14-.04.04-.08.05-.13.05h-2.94v2.86h3.37s.09.02.13.06Z"/>
      </g>
      <g>
        <path class="cls-2" d="m76.24,6.59c-.35-.16-.69-.41-1.04-.75-.04-.04-.06-.09-.06-.14,0-.05.02-.1.07-.15.04-.05.09-.07.14-.07.06,0,.11.03.16.09.25.29.54.51.88.66.34.15.69.23,1.07.23.49,0,.89-.12,1.21-.35.32-.23.47-.54.47-.93,0-.3-.09-.55-.25-.75s-.35-.35-.58-.47c-.23-.12-.55-.25-.94-.39-.44-.16-.78-.31-1.02-.44-.24-.13-.45-.31-.63-.54-.17-.23-.26-.54-.26-.92,0-.31.08-.59.26-.84.17-.25.42-.45.73-.6.32-.15.68-.22,1.1-.22.37,0,.73.07,1.06.2.33.14.6.33.8.57.06.09.09.16.09.2,0,.05-.02.1-.07.14-.05.04-.1.06-.16.06-.05,0-.09-.02-.12-.06-.18-.23-.41-.41-.68-.54s-.58-.2-.92-.2c-.48,0-.88.11-1.2.34-.32.23-.48.54-.48.93,0,.27.08.5.23.69s.35.34.58.46c.23.12.52.24.87.37.44.16.79.3,1.05.44.26.13.48.33.66.58s.28.59.28,1.01c0,.29-.08.56-.26.82-.17.25-.42.45-.74.6-.32.15-.68.22-1.1.22-.47,0-.88-.08-1.22-.24Z"/>
        <path class="cls-2" d="m81.32,6.68s-.08.06-.13.06c-.06,0-.11-.02-.15-.06-.03-.04-.05-.09-.05-.14V.29c0-.06.02-.1.06-.14.04-.04.09-.06.14-.06s.1.02.14.06c.04.04.06.09.06.14v6.25c0,.06-.03.1-.07.14Z"/>
        <path class="cls-2" d="m88.25,3.52s.05.08.05.13v2.38c0,.08-.03.13-.09.17-.29.2-.61.35-.95.46-.34.11-.69.17-1.05.17-.65,0-1.24-.15-1.75-.44-.52-.29-.92-.7-1.21-1.22-.29-.52-.44-1.1-.44-1.76s.15-1.24.44-1.76c.29-.52.7-.93,1.21-1.22.52-.29,1.1-.44,1.75-.44.35,0,.69.04,1.01.13.32.09.61.21.86.38.06.04.08.09.08.16,0,.06-.02.1-.06.14-.04.04-.08.05-.12.05-.03,0-.07-.01-.12-.04-.53-.3-1.08-.45-1.65-.45s-1.1.13-1.56.39c-.46.26-.81.62-1.07,1.08-.26.46-.38.98-.38,1.57s.13,1.1.38,1.57c.26.46.61.82,1.07,1.08.46.26.97.39,1.56.39.29,0,.59-.05.89-.14s.57-.21.82-.37v-2.11h-1.71c-.05,0-.09-.02-.13-.06-.04-.04-.06-.08-.06-.13,0-.06.02-.1.06-.14.04-.03.08-.05.13-.05h1.9c.06,0,.1.02.14.06Z"/>
        <path class="cls-2" d="m94.81.15s.05.08.05.13v6.25c0,.07-.02.12-.06.16s-.08.05-.14.05c-.06,0-.11-.03-.15-.08l-4.27-5.84v5.75s-.02.08-.05.11c-.04.03-.08.05-.13.05-.06,0-.1-.02-.13-.05-.03-.03-.05-.07-.05-.11V.29c0-.06.02-.11.05-.14.04-.03.07-.05.12-.05.06,0,.1.02.14.07l4.31,5.88V.28c0-.05.02-.09.05-.13.03-.03.08-.05.13-.05.06,0,.1.02.13.05Z"/>
        <path class="cls-2" d="m100.66,6.42s.06.08.06.13c0,.06-.02.1-.06.14s-.08.05-.13.05h-3.58c-.05,0-.09-.02-.13-.06-.04-.04-.06-.08-.06-.13V.29c0-.05.02-.1.06-.13.04-.04.08-.06.13-.06h3.58s.09.02.13.06c.04.04.06.08.06.13,0,.06-.02.1-.06.14-.04.04-.08.05-.13.05h-3.37v2.65h2.94c.05,0,.09.02.13.06.04.04.06.08.06.13,0,.06-.02.1-.06.14-.04.04-.08.05-.13.05h-2.94v2.86h3.37s.09.02.13.06Z"/>
        <path class="cls-2" d="m106.97,6.54c0,.06-.02.1-.05.14-.04.03-.08.05-.13.05-.04,0-.07,0-.08-.02-.17-.1-.31-.25-.41-.48s-.15-.59-.15-1.11-.14-.87-.42-1.07c-.28-.19-.6-.29-.97-.29h-2.22v2.78c0,.05-.02.1-.06.13-.04.04-.09.06-.14.06s-.1-.02-.14-.06c-.04-.04-.06-.08-.06-.13V.29c0-.05.02-.1.06-.13.04-.04.08-.06.13-.06h2.51c.37,0,.69.07.98.22.29.15.51.35.67.61.16.26.24.55.24.88,0,.42-.11.79-.34,1.09s-.52.51-.88.62c.3.1.55.28.75.56.2.28.29.63.29,1.04s.03.72.08.89.13.29.24.36c.07.04.1.1.1.17Zm-2.09-3.15c.4-.04.74-.2,1.02-.47.28-.28.42-.64.42-1.09,0-.39-.14-.72-.42-.97s-.65-.38-1.11-.38h-2.25v2.91h2.34Z"/>
      </g>
      <g>
        <path class="cls-2" d="m10.32,53.53c.24.29.37.67.37,1.13,0,.58-.18,1.02-.55,1.33-.36.31-.83.46-1.39.46h-2.62c-.05,0-.1-.02-.13-.06-.04-.04-.06-.08-.06-.13v-6.26c0-.05.02-.09.06-.13.04-.04.08-.06.13-.06h2.55c.51,0,.91.15,1.21.44.3.29.46.68.46,1.18,0,.35-.09.67-.27.96-.18.29-.42.49-.74.59.41.08.73.26.97.55Zm-.71-3.01c-.23-.22-.56-.33-.97-.33h-2.3v2.67h2.3c.39,0,.71-.13.95-.38s.37-.6.37-1.06c0-.37-.12-.67-.35-.89Zm.24,5.2c.29-.24.44-.59.44-1.06s-.15-.82-.44-1.06c-.29-.24-.67-.36-1.15-.36h-2.36v2.83h2.36c.47,0,.86-.12,1.15-.36Z"/>
        <path class="cls-2" d="m16.01,56.13s.06.08.06.13c0,.06-.02.1-.06.14-.04.03-.08.05-.13.05h-3.58c-.05,0-.1-.02-.13-.06-.04-.04-.06-.08-.06-.13v-6.26c0-.05.02-.09.06-.13.04-.04.08-.06.13-.06h3.58c.05,0,.1.02.13.06.04.04.06.08.06.13,0,.06-.02.1-.06.14-.04.03-.08.05-.13.05h-3.37v2.65h2.94c.05,0,.1.02.13.06.04.04.06.08.06.13,0,.06-.02.1-.06.14-.04.04-.08.05-.13.05h-2.94v2.86h3.37c.05,0,.1.02.13.06Z"/>
        <path class="cls-2" d="m22.42,49.86s.05.08.05.13v6.25c0,.07-.02.12-.06.16-.04.03-.09.05-.14.05-.06,0-.11-.03-.15-.08l-4.27-5.84v5.75s-.02.08-.05.11c-.04.03-.08.05-.13.05-.06,0-.1-.02-.13-.05-.03-.03-.05-.07-.05-.11v-6.29c0-.06.02-.11.05-.14.03-.03.07-.05.12-.05.06,0,.1.02.14.07l4.31,5.88v-5.76c0-.05.02-.09.05-.13.03-.04.08-.05.13-.05.06,0,.1.02.13.05Z"/>
      </g>
      <g>
        <path class="cls-2" d="m50.59,55.61c-.32-.24-.56-.56-.72-.96-.01-.04-.02-.07-.02-.09,0-.05.02-.09.06-.12.04-.03.08-.05.13-.05.08,0,.14.04.18.12.12.32.31.58.57.78s.55.3.88.3c.49,0,.88-.15,1.17-.44s.44-.68.44-1.17v-4.57c0-.05.02-.09.06-.13.04-.04.09-.06.15-.06.06,0,.1.02.14.06s.05.08.05.13v4.57c0,.39-.08.74-.25,1.04s-.4.53-.71.7c-.3.17-.65.25-1.04.25s-.77-.12-1.09-.36Z"/>
        <path class="cls-2" d="m60.32,55.7c0,.06-.02.1-.06.13-.04.03-.08.05-.14.05-.04,0-.08-.01-.12-.03s-.06-.05-.07-.09l-.8-1.96v.02s-3.17,0-3.17,0l-.77,1.94c-.03.08-.09.12-.17.12-.06,0-.1-.02-.14-.05-.03-.03-.05-.07-.06-.11,0-.03,0-.06,0-.09l2.55-6.28s.04-.08.07-.1.07-.02.11-.02c.09,0,.16.04.19.12l2.55,6.28s0,.04,0,.08Zm-4.21-2.26h2.88l-1.45-3.58-1.42,3.58Z"/>
      </g>
      <g>
        <path class="cls-2" d="m89.95,50.37s.05.08.05.13v6.26c0,.05-.02.09-.06.13s-.09.06-.14.06c-.06,0-.1-.02-.14-.06-.04-.04-.06-.08-.06-.13v-5.68l-2.45,3.7c-.03.05-.08.08-.13.08-.07,0-.12-.03-.15-.08l-2.46-3.71v5.69c0,.05-.02.09-.06.13-.04.04-.08.06-.13.06-.06,0-.1-.02-.14-.06-.03-.04-.05-.08-.05-.13v-6.26s.02-.09.05-.13c.04-.04.08-.06.13-.06.08,0,.14.03.18.09l2.63,3.91,2.63-3.91c.05-.07.11-.1.18-.09.05,0,.09.03.12.06Z"/>
        <path class="cls-2" d="m92.22,56.9s-.08.06-.13.06c-.06,0-.11-.02-.15-.06-.03-.04-.05-.09-.05-.14v-6.25c0-.06.02-.1.06-.14s.09-.06.14-.06.1.02.14.06.06.08.06.14v6.25c0,.06-.03.1-.07.14Z"/>
        <path class="cls-2" d="m99.12,50.36s.05.08.05.13v6.25c0,.07-.02.12-.06.16-.04.03-.08.05-.14.05-.06,0-.11-.03-.15-.08l-4.27-5.84v5.75s-.02.08-.05.11c-.04.03-.08.05-.13.05-.06,0-.1-.02-.13-.05-.03-.03-.05-.07-.05-.11v-6.29c0-.06.02-.11.05-.14.04-.03.07-.05.12-.05.06,0,.1.02.14.07l4.31,5.88v-5.76c0-.05.02-.09.05-.13.03-.04.08-.05.13-.05.06,0,.1.02.13.05Z"/>
      </g>
    </g>
  </g>
</svg>