<?xml version="1.0" encoding="utf-8"?>
<!-- Generator: Adobe Illustrator 28.0.0, SVG Export Plug-In . SVG Version: 6.00 Build 0)  -->
<svg version="1.1" id="Calque_2" xmlns="http://www.w3.org/2000/svg" xmlns:xlink="http://www.w3.org/1999/xlink" x="0px" y="0px"
	 width="12px" height="12px" viewBox="0 0 12 12" style="enable-background:new 0 0 12 12;" xml:space="preserve">
<style type="text/css">
	.st0{fill:#fff;}
</style>
<path class="st0" d="M3.1,0.3l1.5,2.2c0.1,0.2,0.1,0.5,0,0.7l-1,1.1C3.5,4.4,3.4,4.6,3.4,4.7c0,0.4,0.2,1.3,1.4,2.6
	c1.6,1.9,2.4,1.4,2.4,1.4l1.4-1c0.2-0.1,0.5-0.1,0.7,0l2.1,1.9c0.2,0.2,0.2,0.5,0.1,0.7c-0.3,0.5-1.1,1.3-3.1,1.4
	c-2.9,0.1-5.4-3-5.8-3.5c-0.4-0.5-3-4.1-2-6.4c0.2-0.4,1-1.4,1.7-1.9C2.6,0,3,0.1,3.1,0.3z"/>
</svg>
