<?xml version="1.0" encoding="UTF-8"?>
<svg id="Calque_2" data-name="Calque 2" xmlns="http://www.w3.org/2000/svg" viewBox="0 0 170.05 23.98">
  <defs>
    <style>
      .cls-1, .cls-2 {
        stroke: #f9b233;
        stroke-miterlimit: 10;
        stroke-width: 2px;
      }

      .cls-1, .cls-3 {
        fill: #f9b233;
      }

      .cls-2 {
        fill: none;
      }

      .cls-3 {
        stroke-width: 0px;
      }
    </style>
  </defs>
  <g id="Calque_1-2" data-name="Calque 1">
    <g>
      <path class="cls-3" d="m8.38,7.45L11.84.45c.28-.57,1.08-.56,1.36,0l3.46,7,7.73,1.12c.62.09.87.86.42,1.3l-5.59,5.45,1.32,7.7c.11.62-.55,1.09-1.1.8l-6.91-3.64-6.91,3.63c-.56.29-1.21-.18-1.1-.8l1.32-7.7L.23,9.87c-.45-.44-.2-1.21.42-1.3l7.73-1.12Z"/>
      <path class="cls-3" d="m44.62,7.45l3.46-7c.28-.57,1.08-.56,1.36,0l3.46,7,7.73,1.12c.62.09.87.86.42,1.3l-5.59,5.45,1.32,7.7c.11.62-.55,1.09-1.1.8l-6.91-3.64-6.91,3.63c-.56.29-1.21-.18-1.1-.8l1.32-7.7-5.59-5.45c-.45-.44-.2-1.21.42-1.3l7.73-1.12Z"/>
      <path class="cls-3" d="m80.85,7.45l3.46-7c.28-.57,1.08-.56,1.36,0l3.46,7,7.73,1.12c.62.09.87.86.42,1.3l-5.59,5.45,1.32,7.7c.11.62-.55,1.09-1.1.8l-6.91-3.64-6.91,3.63c-.56.29-1.21-.18-1.1-.8l1.32-7.7-5.59-5.45c-.45-.44-.2-1.21.42-1.3l7.73-1.12Z"/>
      <path class="cls-1" d="m125.11,7.82v13.7l-3.81-2-6.35,3.34c-.51.27-1.11-.17-1.01-.74l1.21-7.07-5.13-5.01c-.42-.4-.19-1.11.38-1.19l7.1-1.03,3.18-6.43c.26-.52,1-.52,1.25,0l3.18,6.43Z"/>
      <path class="cls-2" d="m132.59,10.05l-5.13,5,1.21,7.07c.1.57-.5,1.01-1.02.74l-2.54-1.34V7.82l7.1,1.03c.57.09.8.79.38,1.2Z"/>
      <path class="cls-2" d="m153.73,7.84l3.18-6.44c.26-.52,1-.52,1.25,0l3.18,6.44,7.11,1.03c.57.08.8.79.39,1.19l-5.14,5.01,1.21,7.08c.1.57-.5,1.01-1.01.74l-6.36-3.34-6.36,3.34c-.51.27-1.11-.17-1.01-.74l1.22-7.08-5.14-5.01c-.41-.4-.19-1.11.39-1.19l7.11-1.03Z"/>
    </g>
  </g>
</svg>